<svg width="512" height="512" viewBox="0 0 512 512" fill="none" xmlns="http://www.w3.org/2000/svg">
  <rect width="512" height="512" rx="64" fill="#1F5B61"/>
  <path d="M256 64C179.726 64 118 125.726 118 202C118 278.274 179.726 340 256 340C332.274 340 394 278.274 394 202C394 125.726 332.274 64 256 64ZM256 124C263.732 124 270 130.268 270 138V266C270 273.732 263.732 280 256 280C248.268 280 242 273.732 242 266V138C242 130.268 248.268 124 256 124ZM198 166C205.732 166 212 172.268 212 180V266C212 273.732 205.732 280 198 280C190.268 280 184 273.732 184 266V180C184 172.268 190.268 166 198 166ZM315 152C322.732 152 329 158.268 329 166V266C329 273.732 322.732 280 315 280C307.268 280 301 273.732 301 266V166C301 158.268 307.268 152 315 152Z" fill="white"/>
  <path d="M162 394C162 386.268 168.268 380 176 380H336C343.732 380 350 386.268 350 394V442C350 449.732 343.732 456 336 456H176C168.268 456 162 449.732 162 442V394Z" fill="#C26E50"/>
</svg>